<?xml version="1.0" encoding="UTF-8"?>
<!DOCTYPE svg PUBLIC "-//W3C//DTD SVG 1.1//EN" "http://www.w3.org/Graphics/SVG/1.1/DTD/svg11.dtd">
<!-- Creator: CorelDRAW 2018 (64 Bit) -->
<svg xmlns="http://www.w3.org/2000/svg" xml:space="preserve" width="124px" height="124px" version="1.1" style="shape-rendering:geometricPrecision; text-rendering:geometricPrecision; image-rendering:optimizeQuality; fill-rule:evenodd; clip-rule:evenodd"
viewBox="0 0 72000 72000"
 xmlns:xlink="http://www.w3.org/1999/xlink">
 <defs>
  <style type="text/css">
   <![CDATA[
    .fil0 {fill:#333333}
    .fil1 {fill:#51BFAE}
    .fil2 {fill:white}
    .fil3 {fill:#51BFAE;fill-rule:nonzero}
   ]]>
  </style>
 </defs>
 <g id="Camada_x0020_1">
  <metadata id="CorelCorpID_0Corel-Layer"/>
  <g id="_1953093534320">
   <rect class="fil0" width="72000" height="72000" rx="36000" ry="36000"/>
   <g>
    <path class="fil1" d="M47300 22700l12900 0 4700 7000 -17600 0 0 0c-3900,0 -7100,3200 -7100,7100l0 0c0,7800 -6300,14100 -14100,14100l-10600 0 -7100 0 7100 -10600 0 3600 10600 0c3900,0 7100,-3200 7100,-7100l-100 0c0,-7800 6400,-14100 14200,-14100z"/>
    <path class="fil2" d="M15500 33300l0 -3600 10600 0 0 0c2400,0 4600,1300 5900,3200 600,-2500 1800,-4800 3500,-6600 -2500,-2300 -5800,-3600 -9400,-3600l-10600 0 -7100 0 7100 10600zm22300 14000c2500,2300 5800,3600 9500,3600l12900 0 4700 -7000 -17600 0c-2500,0 -4700,-1300 -5900,-3200 -700,2500 -1900,4800 -3600,6600z"/>
    <path class="fil3" d="M63700 24000l-200 0 0 500 -200 0 0 -1300 400 0c200,0 300,0 400,100 100,100 100,200 100,300 0,100 0,200 -100,200 0,100 -100,100 -200,200l400 500 -300 0 -300 -500zm-200 -200l200 0c100,0 100,0 200,0 0,-100 0,-100 0,-200 0,-100 0,-100 0,-100 -100,-100 -100,-100 -200,-100l-200 0 0 400zm200 -1100c400,0 700,100 900,300 200,200 300,500 300,900 0,300 -100,600 -300,800 -200,200 -500,400 -900,400 -300,0 -600,-200 -800,-400 -200,-200 -400,-500 -400,-800 0,-400 200,-700 400,-900 200,-200 500,-300 800,-300zm700 500c-100,-200 -400,-300 -700,-300 -300,0 -500,100 -700,300 -200,100 -300,400 -300,700 0,200 100,500 300,700 200,200 400,300 700,300 300,0 600,-100 700,-300 200,-200 300,-500 300,-700 0,-300 -100,-600 -300,-700z"/>
    <rect class="fil1" x="26400" y="31000" width="3700" height="3700" rx="1800" ry="1800"/>
    <rect class="fil1" x="28400" y="34200" width="2800" height="2800" rx="1400" ry="1400"/>
    <rect class="fil1" x="23800" y="34800" width="2900" height="2900" rx="1500" ry="1500"/>
    <rect class="fil1" x="22900" y="31800" width="1200" height="1200" rx="600" ry="600"/>
    <rect class="fil1" x="20500" y="41100" width="1200" height="1200" rx="600" ry="600"/>
    <rect class="fil1" x="18000" y="33600" width="2200" height="2200" rx="1100" ry="1100"/>
    <rect class="fil1" x="16100" y="37100" width="1500" height="1500" rx="700" ry="700"/>
    <rect class="fil1" x="14000" y="34300" width="1700" height="1700" rx="900" ry="900"/>
    <rect class="fil1" x="10500" y="36600" width="1700" height="1700" rx="900" ry="900"/>
    <rect class="fil1" x="26900" y="37800" width="3000" height="3000" rx="1500" ry="1500"/>
    <rect class="fil1" x="13000" y="38800" width="1800" height="1800" rx="900" ry="900"/>
    <rect class="fil1" x="7200" y="37300" width="1000" height="1000" rx="500" ry="500"/>
    <rect class="fil1" x="3900" y="36100" width="1200" height="1200" rx="600" ry="600"/>
    <rect class="fil1" x="9000" y="33800" width="1500" height="1500" rx="700" ry="700"/>
    <rect class="fil1" x="2200" y="37900" width="1000" height="1000" rx="500" ry="500"/>
    <rect class="fil1" x="2600" y="33700" width="900" height="900" rx="500" ry="500"/>
    <rect class="fil1" x="21000" y="38000" width="2200" height="2200" rx="1100" ry="1100"/>
    <rect class="fil1" x="16700" y="39400" width="2400" height="2400" rx="1200" ry="1200"/>
    <rect class="fil1" x="21000" y="34500" width="2100" height="2100" rx="1000" ry="1000"/>
    <rect class="fil1" x="24000" y="40400" width="1400" height="1400" rx="700" ry="700"/>
    <rect class="fil1" x="17000" y="31100" width="1200" height="1200" rx="600" ry="600"/>
    <rect class="fil1" x="10600" y="31100" width="1700" height="1700" rx="900" ry="900"/>
    <rect class="fil1" x="9700" y="42100" width="1800" height="1800" rx="900" ry="900"/>
    <rect class="fil1" x="4800" y="39100" width="1500" height="1500" rx="700" ry="700"/>
    <rect class="fil1" x="5600" y="29400" width="1500" height="1500" rx="700" ry="700"/>
    <rect class="fil1" x="8800" y="39500" width="1200" height="1200" rx="600" ry="600"/>
    <rect class="fil1" x="8600" y="27400" width="1200" height="1200" rx="600" ry="600"/>
    <rect class="fil1" x="6300" y="32700" width="900" height="900" rx="500" ry="500"/>
    <rect class="fil1" x="6500" y="42200" width="1000" height="1000" rx="500" ry="500"/>
    <rect class="fil1" x="7700" y="46300" width="900" height="900" rx="500" ry="500"/>
    <rect class="fil1" x="19100" y="38000" width="1200" height="1200" rx="600" ry="600"/>
    <rect class="fil1" x="47100" y="31400" width="4700" height="4700" rx="2300" ry="2300"/>
    <rect class="fil1" x="50600" y="35000" width="2300" height="2300" rx="1200" ry="1200"/>
    <rect class="fil1" x="53700" y="31600" width="3200" height="3200" rx="1600" ry="1600"/>
    <rect class="fil1" x="55100" y="36400" width="1400" height="1400" rx="700" ry="700"/>
    <rect class="fil1" x="44000" y="33900" width="2400" height="2400" rx="1200" ry="1200"/>
    <rect class="fil1" x="47400" y="37200" width="1600" height="1600" rx="800" ry="800"/>
    <rect class="fil1" x="43000" y="37700" width="1400" height="1400" rx="700" ry="700"/>
    <rect class="fil1" x="51700" y="38900" width="1500" height="1500" rx="800" ry="800"/>
    <rect class="fil1" x="55700" y="38000" width="4300" height="4300" rx="2200" ry="2200"/>
    <rect class="fil1" x="58400" y="34200" width="2000" height="2000" rx="1000" ry="1000"/>
    <rect class="fil1" x="47200" y="40000" width="1900" height="1900" rx="900" ry="900"/>
    <rect class="fil1" x="61500" y="31500" width="2200" height="2200" rx="1100" ry="1100"/>
    <rect class="fil1" x="63700" y="40400" width="1000" height="1000" rx="500" ry="500"/>
    <rect class="fil1" x="52500" y="42000" width="800" height="800" rx="400" ry="400"/>
   </g>
  </g>
 </g>
</svg>
