<?xml version="1.0" encoding="UTF-8"?>
<!DOCTYPE svg PUBLIC "-//W3C//DTD SVG 1.1//EN" "http://www.w3.org/Graphics/SVG/1.1/DTD/svg11.dtd">
<!-- Creator: CorelDRAW 2018 (64 Bit) -->
<svg xmlns="http://www.w3.org/2000/svg" xml:space="preserve" width="124px" height="124px" version="1.1" style="shape-rendering:geometricPrecision; text-rendering:geometricPrecision; image-rendering:optimizeQuality; fill-rule:evenodd; clip-rule:evenodd"
viewBox="0 0 95500 95500"
 xmlns:xlink="http://www.w3.org/1999/xlink">
 <defs>
  <style type="text/css">
   <![CDATA[
    .fil0 {fill:#51BFAE}
    .fil1 {fill:white}
    .fil2 {fill:white;fill-rule:nonzero}
   ]]>
  </style>
 </defs>
 <g id="Camada_x0020_1">
  <metadata id="CorelCorpID_0Corel-Layer"/>
  <g id="_1953050806896">
   <rect class="fil0" width="95500" height="95500" rx="47700" ry="47700"/>
   <g>
    <path class="fil1" d="M62700 30100l17100 0 6300 9300 -23400 0 0 0c-5200,0 -9400,4200 -9400,9400l0 0c0,10400 -8400,18700 -18700,18700l-14100 0 -9300 0 9300 -14000 0 4700 14100 0c5200,0 9400,-4200 9400,-9400l-100 0c0,-10300 8400,-18700 18800,-18700z"/>
    <path class="fil1" d="M20500 44100l0 -4700 14100 0 0 0c3300,0 6100,1700 7800,4200 800,-3300 2500,-6300 4700,-8800 -3300,-2900 -7700,-4700 -12500,-4700l-14100 0 -9300 0 9300 14000zm29700 18700c3300,2900 7700,4700 12500,4700l17100 0 6300 -9300 -23400 0c-3300,0 -6200,-1700 -7800,-4200 -900,3300 -2500,6300 -4700,8800z"/>
    <path class="fil2" d="M84400 31800l-100 0 0 700 -400 0 0 -1700 500 0c300,0 400,0 600,100 100,100 100,200 100,400 0,100 0,200 -100,300 0,100 -100,100 -200,200l400 700 -400 0 -400 -700zm-100 -200l100 0c100,0 200,0 300,-100 0,0 0,-100 0,-200 0,-100 0,-200 0,-200 -100,0 -200,-100 -300,-100l-100 0 0 600zm200 -1500c400,0 800,100 1100,400 300,300 500,700 500,1200 0,400 -200,800 -500,1100 -300,300 -700,400 -1100,400 -400,0 -800,-100 -1100,-400 -300,-300 -500,-700 -500,-1100 0,-500 200,-900 500,-1200 300,-300 700,-400 1100,-400zm900 600c-200,-200 -500,-400 -900,-400 -400,0 -700,200 -900,400 -300,300 -400,600 -400,1000 0,300 100,700 400,900 200,200 500,400 900,400 400,0 700,-200 900,-400 300,-200 400,-600 400,-900 0,-400 -100,-700 -400,-1000z"/>
    <rect class="fil1" x="35000" y="41200" width="4900" height="4900" rx="2500" ry="2500"/>
    <rect class="fil1" x="37700" y="45300" width="3600" height="3600" rx="1800" ry="1800"/>
    <rect class="fil1" x="31600" y="46200" width="3900" height="3900" rx="1900" ry="1900"/>
    <rect class="fil1" x="30300" y="42200" width="1600" height="1600" rx="800" ry="800"/>
    <rect class="fil1" x="27200" y="54500" width="1600" height="1600" rx="800" ry="800"/>
    <rect class="fil1" x="23900" y="44600" width="3000" height="3000" rx="1500" ry="1500"/>
    <rect class="fil1" x="21300" y="49200" width="2000" height="2000" rx="1000" ry="1000"/>
    <rect class="fil1" x="18500" y="45500" width="2300" height="2300" rx="1100" ry="1100"/>
    <rect class="fil1" x="14000" y="48500" width="2300" height="2300" rx="1100" ry="1100"/>
    <rect class="fil1" x="35700" y="50100" width="4000" height="4000" rx="2000" ry="2000"/>
    <rect class="fil1" x="17300" y="51500" width="2400" height="2400" rx="1200" ry="1200"/>
    <rect class="fil1" x="9500" y="49500" width="1400" height="1400" rx="700" ry="700"/>
    <rect class="fil1" x="5100" y="47800" width="1600" height="1600" rx="800" ry="800"/>
    <rect class="fil1" x="12000" y="44800" width="2000" height="2000" rx="1000" ry="1000"/>
    <rect class="fil1" x="3000" y="50300" width="1400" height="1400" rx="700" ry="700"/>
    <rect class="fil1" x="3400" y="44700" width="1200" height="1200" rx="600" ry="600"/>
    <rect class="fil1" x="27800" y="50400" width="3000" height="3000" rx="1500" ry="1500"/>
    <rect class="fil1" x="22100" y="52200" width="3200" height="3200" rx="1600" ry="1600"/>
    <rect class="fil1" x="27900" y="45700" width="2700" height="2700" rx="1400" ry="1400"/>
    <rect class="fil1" x="31800" y="53500" width="1900" height="1900" rx="900" ry="900"/>
    <rect class="fil1" x="22500" y="41200" width="1600" height="1600" rx="800" ry="800"/>
    <rect class="fil1" x="14100" y="41200" width="2300" height="2300" rx="1100" ry="1100"/>
    <rect class="fil1" x="12900" y="55800" width="2400" height="2400" rx="1200" ry="1200"/>
    <rect class="fil1" x="6400" y="51900" width="2000" height="2000" rx="1000" ry="1000"/>
    <rect class="fil1" x="7400" y="38900" width="2000" height="2000" rx="1000" ry="1000"/>
    <rect class="fil1" x="11600" y="52300" width="1600" height="1600" rx="800" ry="800"/>
    <rect class="fil1" x="11300" y="36300" width="1600" height="1600" rx="800" ry="800"/>
    <rect class="fil1" x="8300" y="43300" width="1200" height="1200" rx="600" ry="600"/>
    <rect class="fil1" x="8600" y="56000" width="1400" height="1400" rx="700" ry="700"/>
    <rect class="fil1" x="10200" y="61300" width="1200" height="1200" rx="600" ry="600"/>
    <rect class="fil1" x="25400" y="50400" width="1600" height="1600" rx="800" ry="800"/>
    <rect class="fil1" x="62500" y="41700" width="6200" height="6200" rx="3100" ry="3100"/>
    <rect class="fil1" x="67100" y="46400" width="3100" height="3100" rx="1600" ry="1600"/>
    <rect class="fil1" x="71200" y="41900" width="4200" height="4200" rx="2100" ry="2100"/>
    <rect class="fil1" x="73000" y="48300" width="1800" height="1800" rx="900" ry="900"/>
    <rect class="fil1" x="58400" y="44900" width="3100" height="3100" rx="1600" ry="1600"/>
    <rect class="fil1" x="62900" y="49400" width="2100" height="2100" rx="1100" ry="1100"/>
    <rect class="fil1" x="57000" y="49900" width="1800" height="1800" rx="900" ry="900"/>
    <rect class="fil1" x="68600" y="51500" width="2000" height="2000" rx="1000" ry="1000"/>
    <rect class="fil1" x="73800" y="50400" width="5700" height="5700" rx="2900" ry="2900"/>
    <rect class="fil1" x="77400" y="45300" width="2700" height="2700" rx="1300" ry="1300"/>
    <rect class="fil1" x="62600" y="53100" width="2500" height="2500" rx="1200" ry="1200"/>
    <rect class="fil1" x="81600" y="41800" width="2900" height="2900" rx="1500" ry="1500"/>
    <rect class="fil1" x="84400" y="53500" width="1300" height="1300" rx="700" ry="700"/>
    <rect class="fil1" x="69600" y="55700" width="1100" height="1100" rx="500" ry="500"/>
   </g>
  </g>
 </g>
</svg>
